<svg width="400" height="400" viewBox="0 0 400 400" fill="none" xmlns="http://www.w3.org/2000/svg">
<path fill-rule="evenodd" clip-rule="evenodd" d="M95.6842 135C97.2471 135 98.7891 135.307 100.226 135.9L101.283 136.399L196.662 187.232C197.353 187.602 197.837 188.25 198.002 188.997L198.065 189.573V209.427C198.065 210.212 197.72 210.945 197.14 211.442L196.662 211.768L101.283 262.601C99.9038 263.337 98.3984 263.791 96.8512 263.943L95.6842 264H77.9356C75.6151 264 74.2897 261.478 75.3968 259.596L75.7251 259.141L121.963 205.849C122.805 204.876 123.945 204.227 125.19 203.99L125.949 203.898L177.218 201.218V197.782L125.949 195.102C124.669 195.036 123.456 194.536 122.503 193.698L121.963 193.155L75.7251 139.859C74.2026 138.106 75.2323 135.449 77.377 135.051L77.9356 135H95.6842ZM322.066 135C324.577 135 325.923 137.959 324.277 139.859L278.04 193.155C277.029 194.318 275.59 195.023 274.054 195.102L222.785 197.782V201.218L274.054 203.898C275.59 203.981 277.029 204.681 278.04 205.849L324.277 259.141C325.923 261.041 324.577 264 322.066 264H304.319C302.365 264 300.444 263.521 298.719 262.601L203.341 211.768C202.476 211.309 201.937 210.408 201.937 209.427V189.573C201.937 188.592 202.476 187.694 203.341 187.232L298.719 136.399C300.444 135.479 302.365 135 304.319 135H322.066Z" fill="black"/>
</svg>
