<svg width="400" height="400" viewBox="0 0 400 400" fill="none" xmlns="http://www.w3.org/2000/svg">
<path fill-rule="evenodd" clip-rule="evenodd" d="M271.266 151L296.138 195.769H219.296L194.542 151H271.266ZM198.416 203.114C189.617 203.114 180.467 202.298 174.836 197.518C170.142 193.904 167.561 189.707 164.863 184.928C164.276 183.98 157.502 171.735 152.275 162.288L152.273 162.283C149.139 156.619 146.562 151.962 146.21 151.35H75C77.5587 155.995 80.1174 160.66 82.6789 165.33C88.9256 176.719 95.1898 188.139 101.513 199.383C109.255 213.374 116.646 226.432 130.137 235.992C136.591 240.77 143.394 243.92 151.372 245.902C159.232 247.767 167.21 248 175.303 248H238.655L213.784 203.114H198.416ZM223.404 202.998L248.276 248H325L300.011 202.998H223.404Z" fill="black"/>
</svg>
