<svg width="400" height="400" viewBox="0 0 400 400" fill="none" xmlns="http://www.w3.org/2000/svg">
<path d="M307.52 262.231L263.18 217.891C253.915 208.625 254.704 208.953 241.58 208.953H158.427C145.296 208.953 146.085 208.633 136.827 217.891L92.4871 262.231C102.54 282.511 118.123 299.535 137.438 311.338L188.511 260.265C193.159 255.617 195.214 253.814 197.739 253.04C198.458 252.786 199.212 252.645 199.974 252.623C200.736 252.643 201.49 252.784 202.208 253.04C204.733 253.785 206.789 255.617 211.437 260.265L262.51 311.338C281.848 299.545 297.453 282.52 307.52 262.231Z" fill="black"/>
<path d="M143.24 204.596C146.592 200.983 146.123 197.892 149.4 189.416C153.347 179.201 160.292 170.42 169.324 164.228C178.355 158.035 189.049 154.721 200 154.721C210.951 154.721 221.645 158.035 230.676 164.228C239.708 170.42 246.653 179.201 250.6 189.416C253.877 197.922 253.408 200.983 256.753 204.596C260.097 208.208 263.456 208.945 274.092 208.945H319.996C320.121 193.108 317.109 177.402 311.135 162.734C305.161 148.066 296.341 134.725 285.186 123.482C274.031 112.239 260.761 103.315 246.14 97.2251C231.52 91.1353 215.838 88 200 88C184.162 88 168.48 91.1353 153.86 97.2251C139.239 103.315 125.969 112.239 114.814 123.482C103.659 134.725 94.8395 148.066 88.865 162.734C82.8906 177.402 79.8789 193.108 80.0037 208.945H125.885C136.559 208.945 139.985 208.111 143.24 204.596Z" fill="black"/>
</svg>
