<svg width="400" height="400" viewBox="0 0 400 400" fill="none" xmlns="http://www.w3.org/2000/svg">
<path d="M151.731 156.321H231.494C240.88 156.321 247.145 160.462 247.145 169.806C247.145 178.746 237.758 186.794 231.026 193.165C230.705 193.399 230.455 193.718 230.306 194.087C230.156 194.455 230.114 194.858 230.182 195.25C230.251 195.642 230.428 196.006 230.694 196.302C230.959 196.598 231.303 196.814 231.685 196.924C245.451 200.614 258.461 206.695 270.122 214.89C270.745 215.372 271.526 215.605 272.311 215.542C273.097 215.479 273.831 215.125 274.369 214.55C282.312 207.181 297.134 189.343 297.134 166.195C297.049 132.536 269.358 109.007 235.125 109.007H108.579C108.311 108.984 108.042 109.02 107.789 109.112C107.537 109.205 107.307 109.351 107.117 109.541C106.927 109.731 106.781 109.96 106.689 110.213C106.596 110.465 106.56 110.735 106.583 111.003C106.583 138.864 124.06 156.321 151.731 156.321Z" fill="#00E6B9"/>
<path d="M200.001 203.656C175.189 203.628 151.082 211.899 131.514 227.154C111.946 242.408 98.0423 263.768 92.0149 287.836C91.995 288.041 91.995 288.247 92.0149 288.452C92.0149 289.128 92.2834 289.776 92.7613 290.254C93.2392 290.732 93.8874 291 94.5633 291H138.416C139.201 291.003 139.97 290.777 140.63 290.351C141.29 289.925 141.811 289.317 142.132 288.6C147.096 277.398 155.206 267.877 165.476 261.194C175.747 254.512 187.737 250.954 199.99 250.954C212.243 250.954 224.233 254.512 234.503 261.194C244.774 267.877 252.884 277.398 257.848 288.6C258.168 289.317 258.69 289.925 259.35 290.351C260.01 290.777 260.779 291.003 261.564 291H305.417C306.092 291 306.741 290.732 307.219 290.254C307.696 289.776 307.965 289.128 307.965 288.452C307.985 288.247 307.985 288.041 307.965 287.836C301.942 263.77 288.042 242.41 268.478 227.156C248.913 211.901 224.809 203.629 200.001 203.656Z" fill="#00E6B9"/>
</svg>
