<svg width="400" height="400" viewBox="0 0 400 400" fill="none" xmlns="http://www.w3.org/2000/svg">
<path d="M187.226 241.691C194.629 241.691 200.474 247.731 200.474 254.94C200.474 262.148 194.434 268.188 187.226 268.188C179.822 268.188 173.977 262.148 173.977 254.94C173.782 247.731 179.822 241.691 187.226 241.691Z" fill="black"/>
<path d="M187.226 205.647C194.629 205.647 200.474 211.687 200.474 218.895C200.474 226.299 194.434 232.144 187.226 232.144C179.822 232.144 173.977 226.104 173.977 218.895C173.782 211.687 179.822 205.647 187.226 205.647Z" fill="black"/>
<path d="M111.241 169.213C118.645 169.213 124.49 175.253 124.49 182.462C124.49 189.865 118.45 195.71 111.241 195.71C103.837 195.71 97.9923 189.671 97.9923 182.462C97.9923 175.058 103.837 169.213 111.241 169.213Z" fill="black"/>
<path d="M187.226 169.213C194.629 169.213 200.474 175.253 200.474 182.462C200.474 189.671 194.434 195.71 187.226 195.71C179.822 195.71 173.977 189.671 173.977 182.462C173.782 175.058 179.822 169.213 187.226 169.213Z" fill="black"/>
<path d="M211.19 217.921H249.182C256.976 217.921 262.626 217.726 265.938 217.336C269.055 216.947 271.978 216.167 274.9 214.998C280.745 212.466 283.668 208.569 283.668 201.75C283.668 195.125 280.745 190.449 274.9 187.917C272.172 186.748 269.055 185.773 266.133 185.579C263.015 185.189 257.365 184.994 249.377 184.994H211.385V217.921H211.19Z" fill="black"/>
<path d="M265.353 268.188L256.781 256.303C247.429 244.418 239.83 244.029 223.27 244.029H210.995V268.577H255.612C259.314 268.383 262.041 268.383 265.353 268.188Z" fill="black"/>
<path d="M210.995 133.169H255.612C274.316 133.169 288.928 135.118 298.865 138.819C313.282 144.275 323.998 153.432 330.817 165.901C336.272 175.837 339 187.527 339 200.776C339 224.156 330.817 242.665 314.451 254.939C308.996 259.031 302.761 262.148 296.332 264.291L280.55 241.691C283.862 241.106 286.98 239.937 290.097 238.379C313.672 225.909 318.543 191.229 300.228 171.941C289.707 161.03 268.081 158.497 252.689 158.497H210.8V133.169H210.995Z" fill="black"/>
<path d="M73.2486 132C80.6522 132 86.4972 138.04 86.4972 145.249C86.4972 152.457 80.4574 158.497 73.2486 158.497C65.845 158.497 60 152.457 60 145.249C60 137.845 66.0398 132 73.2486 132Z" fill="black"/>
<path d="M111.241 132C118.645 132 124.49 138.04 124.49 145.249C124.49 152.652 118.45 158.497 111.241 158.497C103.837 158.497 97.9923 152.457 97.9923 145.249C97.9923 137.845 103.837 132 111.241 132Z" fill="black"/>
<path d="M149.623 132C157.027 132 162.872 138.04 162.872 145.249C162.872 152.457 156.832 158.497 149.623 158.497C142.219 158.497 136.374 152.457 136.374 145.249C136.374 137.845 142.219 132 149.623 132Z" fill="#E60012"/>
<path d="M149.623 169.213C157.027 169.213 162.872 175.253 162.872 182.462C162.872 189.671 156.832 195.71 149.623 195.71C142.219 195.71 136.374 189.671 136.374 182.462C136.374 175.058 142.219 169.213 149.623 169.213Z" fill="#FFF100"/>
<path d="M149.623 205.647C157.027 205.647 162.872 211.687 162.872 218.895C162.872 226.299 156.832 232.144 149.623 232.144C142.219 232.144 136.374 226.104 136.374 218.895C136.374 211.687 142.219 205.647 149.623 205.647Z" fill="#009944"/>
<path d="M187.226 132C194.629 132 200.474 138.04 200.474 145.249C200.474 152.457 194.434 158.497 187.226 158.497C179.822 158.497 173.977 152.457 173.977 145.249C173.782 137.845 179.822 132 187.226 132Z" fill="black"/>
</svg>
