<svg width="400" height="400" viewBox="0 0 400 400" fill="none" xmlns="http://www.w3.org/2000/svg">
<path d="M264.816 153.22C264.654 153.723 264.46 154.241 264.319 154.772C263.815 156.658 263.57 158.787 264.739 160.261C266.879 162.962 265.525 164.308 263.528 166.128C253.99 174.823 244.572 183.646 235.133 192.448C234.121 193.391 233.226 193.766 231.777 193.237C228.809 192.152 225.85 192.286 223.351 194.491C222.239 195.472 221.294 195.569 219.968 194.909C196.783 183.35 173.582 171.821 150.366 160.322C148.996 159.643 148.433 158.869 149.018 157.378C149.653 155.762 149.557 154.09 148.88 152.54C148.273 151.151 148.64 150.252 149.656 149.224C155.855 142.957 161.994 136.63 168.149 130.322C177.273 120.971 186.406 111.63 195.503 102.253C196.979 100.732 198.147 100.367 200.061 101.865C221.08 118.309 242.176 134.656 263.242 151.039C263.954 151.594 264.937 152.007 264.816 153.22Z" fill="#0066FF"/>
<path d="M220.527 199.813C220.297 202.504 220.705 204.739 222.533 206.226C224.457 207.789 224.269 209.406 223.609 211.442C219.165 225.14 214.794 238.861 210.403 252.576C209.996 253.85 209.565 255.121 209.234 256.414C208.753 258.298 207.906 258.382 206.404 257.302C201.227 253.576 195.986 249.94 190.77 246.267C179.824 238.561 168.889 230.836 157.918 223.163C156.365 222.077 155.293 220.883 154.887 218.922C151.231 201.281 147.482 183.658 143.794 166.025C143.573 164.967 142.762 163.664 144.318 162.899C145.9 162.122 147.078 160.664 149.403 161.837C172.471 173.475 195.603 184.984 218.757 196.445C220.582 197.349 220.906 198.486 220.527 199.813Z" fill="#0066FF"/>
<path d="M301.539 223.051C298.641 224.183 295.949 225.238 293.254 226.288C267.058 236.494 240.864 246.705 214.657 256.882C213.593 257.295 212.211 258.414 211.404 257.681C210.44 256.805 211.516 255.344 211.875 254.208C216.406 239.88 221.002 225.572 225.532 211.244C226.016 209.714 226.562 208.927 228.448 209.055C231.53 209.264 233.908 207.644 235.478 205.06C236.258 203.774 237.072 203.641 238.395 204.027C258.806 209.98 279.229 215.894 299.648 221.821C300.242 221.992 300.896 222.072 301.539 223.051Z" fill="#0066FF"/>
<path d="M302.059 225.046C298.736 229.419 294.653 232.868 290.783 236.529C273.399 252.972 255.977 269.373 238.559 285.78C234.034 290.043 229.447 294.243 224.953 298.539C223.678 299.758 223.025 299.87 222.416 298.004C218.563 286.183 214.67 274.375 210.739 262.579C210.261 261.145 210.57 260.48 212.002 259.925C241.591 248.443 271.165 236.918 300.744 225.407C301.166 225.242 301.621 225.165 302.059 225.046Z" fill="#0066FF"/>
<path d="M303.108 219.903C302.766 221.047 301.956 220.516 301.302 220.331C296.837 219.058 292.375 217.773 287.917 216.479C271.972 211.85 256.039 207.18 240.072 202.627C237.915 202.012 237.291 200.698 236.307 198.826C234.444 195.279 236.231 193.816 238.511 191.746C248.004 183.134 257.347 174.355 266.718 165.61C267.617 164.771 268.471 164.366 269.669 164.867C270.706 165.301 271.865 165.477 272.917 165.207C274.95 164.683 275.834 165.607 276.688 167.313C285.128 184.194 293.646 201.037 302.138 217.891C302.457 218.522 302.753 219.163 303.108 219.903Z" fill="#0066FF"/>
<path d="M123.311 220.145C114.171 220.145 105.03 220.151 95.8901 220.134C95.2137 220.132 94.3272 220.433 93.9246 219.729C93.4871 218.965 94.304 218.462 94.7147 217.93C108.273 200.352 121.835 182.777 135.416 165.215C136.287 164.089 136.918 162.743 138.957 163.131C140.863 163.496 141.547 164.417 141.908 166.164C144.436 178.414 147.035 190.65 149.614 202.889C150.653 207.816 151.649 212.752 152.769 217.66C153.2 219.545 152.716 220.193 150.732 220.177C141.592 220.103 132.451 220.145 123.311 220.145Z" fill="#0066FF"/>
<path d="M194.659 101.427C191.329 104.523 187.88 107.5 184.691 110.735C172.755 122.839 160.889 135.013 149.038 147.2C147.75 148.525 146.767 149.205 144.879 147.969C142.569 146.457 139.88 146.493 137.448 147.872C136.045 148.666 135.364 148.187 134.538 147.099C128.59 139.263 122.627 131.438 116.603 123.663C115.307 121.989 115.905 121.497 117.63 121.031C137.013 115.794 156.385 110.511 175.76 105.244C181.079 103.798 186.397 102.351 191.722 100.927C192.456 100.728 193.185 100.301 194.659 101.427Z" fill="#0066FF"/>
<path d="M201.612 100C206.321 100.702 210.81 101.358 215.295 102.043C232.555 104.684 249.814 107.339 267.075 109.978C270.608 110.518 270.535 110.501 270.673 114.101C271.063 124.225 271.536 134.347 271.937 144.471C271.99 145.777 272.619 147.475 271.543 148.31C270.104 149.429 268.235 150.017 266.505 150.721C265.987 150.933 265.492 150.399 265.058 150.062C244.309 133.941 223.559 117.819 202.817 101.688C202.398 101.365 201.856 101.124 201.612 100Z" fill="#0066FF"/>
<path d="M305.805 220.111C304.805 219.452 304.611 218.651 304.266 217.965C295.617 200.75 287.001 183.52 278.315 166.324C277.479 164.671 277.853 163.63 278.564 161.931C280.141 158.163 282.821 158.151 286.109 158.143C296.649 158.117 307.188 157.892 317.726 157.657C319.831 157.609 320.299 158.318 319.838 160.292C315.275 179.806 310.766 199.332 306.234 218.855C306.15 219.218 305.993 219.566 305.805 220.111Z" fill="#0066FF"/>
<path d="M81.5172 178.112C84.3066 173.165 86.7874 168.725 89.3053 164.307C96.8219 151.115 104.351 137.931 111.882 124.746C113.155 122.517 113.393 122.483 114.896 124.444C120.98 132.371 127.029 140.325 133.134 148.235C134.102 149.489 134.444 150.581 133.583 152.066C132.72 153.556 132.936 155.29 133.144 156.923C133.29 158.073 132.921 158.644 131.857 159.052C115.609 165.271 99.3723 171.519 83.1301 177.755C82.8469 177.864 82.5313 177.892 81.5172 178.112Z" fill="#0066FF"/>
<path d="M92.6598 216.994C91.6434 216.836 91.6549 215.889 91.4159 215.216C89.2565 209.136 87.1343 203.043 85.0109 196.95C83.4317 192.418 81.9233 187.859 80.264 183.357C79.6548 181.706 80.0888 180.963 81.6808 180.355C98.6761 173.866 115.651 167.32 132.634 160.799C133.489 160.471 134.442 159.872 135.197 160.919C135.976 161.994 134.982 162.683 134.448 163.376C121.101 180.716 107.736 198.042 94.3666 215.365C93.8909 215.98 93.4546 216.656 92.6598 216.994Z" fill="#0066FF"/>
<path d="M289.701 156.383C287.338 156.383 284.975 156.341 282.613 156.399C281.249 156.433 280.411 155.972 279.985 154.602C279.223 152.15 277.661 150.322 275.251 149.342C274.086 148.867 273.875 148.002 273.837 146.901C273.529 137.946 273.205 128.992 272.862 120.039C272.784 117.998 272.602 115.962 272.488 113.923C272.463 113.465 272.364 112.894 272.805 112.618C273.416 112.235 273.82 112.833 274.23 113.141C274.73 113.517 275.164 113.982 275.62 114.417C289.394 127.564 303.17 140.71 316.938 153.864C317.365 154.272 318.148 154.601 317.833 155.342C317.538 156.034 316.747 155.866 316.141 155.863C307.325 155.824 298.511 156.031 289.701 156.383Z" fill="#0066FF"/>
<path d="M234.159 200.769C234.162 203.711 231.531 206.359 228.577 206.389C225.63 206.419 223.018 203.816 222.976 200.805C222.934 197.837 225.554 195.189 228.532 195.188C231.471 195.188 234.157 197.852 234.159 200.769Z" fill="#0066FF"/>
<path d="M141.13 160.661C137.908 160.639 135.57 158.311 135.619 155.172C135.666 152.089 138.16 149.628 141.191 149.672C144.277 149.717 146.744 152.2 146.713 155.228C146.68 158.345 144.278 160.682 141.13 160.661Z" fill="#0066FF"/>
<path d="M277.721 157.093C277.68 160.216 275.259 162.582 272.144 162.543C269.001 162.503 266.706 160.133 266.736 156.958C266.766 153.804 269.117 151.504 272.288 151.527C275.406 151.547 277.761 153.962 277.721 157.093Z" fill="#0066FF"/>
</svg>
