<svg width="400" height="400" viewBox="0 0 400 400" fill="none" xmlns="http://www.w3.org/2000/svg">
<path d="M80 200C80 176.266 87.0383 153.064 100.225 133.33C113.411 113.596 132.153 98.2151 154.081 89.1331C176.009 80.051 200.138 77.6755 223.416 82.3069C246.694 86.9384 268.076 98.3687 284.858 115.153C301.64 131.936 313.067 153.32 317.696 176.598C322.325 199.877 319.946 224.006 310.861 245.932C301.776 267.859 286.393 286.6 266.657 299.784C246.922 312.968 223.719 320.003 199.985 320C168.162 319.996 137.643 307.351 115.142 284.848C92.6408 262.344 80 231.823 80 200ZM199.985 315.74C230.677 315.733 260.109 303.536 281.809 281.831C303.509 260.127 315.7 230.692 315.701 200H308.801C308.65 228.759 297.12 256.288 276.73 276.571C256.341 296.853 228.752 308.239 199.992 308.239C171.233 308.239 143.644 296.853 123.254 276.571C102.865 256.288 91.335 228.759 91.184 200H84.248C84.2488 230.695 96.4426 260.133 118.147 281.839C139.852 303.544 169.29 315.738 199.985 315.74ZM199.985 304.55C227.716 304.552 254.312 293.538 273.922 273.931C293.533 254.324 304.552 227.731 304.556 200H297.62C297.62 225.891 287.335 250.722 269.027 269.03C250.719 287.338 225.888 297.623 199.997 297.623C174.106 297.623 149.275 287.338 130.967 269.03C112.659 250.722 102.374 225.891 102.374 200H95.447C95.4478 227.726 106.461 254.317 126.066 273.923C145.67 293.529 172.259 304.546 199.985 304.55ZM199.985 293.36C224.746 293.358 248.492 283.522 266.002 266.014C283.511 248.507 293.35 224.761 293.354 200H286.427C286.292 222.835 277.127 244.689 260.933 260.788C244.738 276.887 222.831 285.924 199.995 285.924C177.16 285.924 155.253 276.887 139.058 260.788C122.864 244.689 113.699 222.835 113.564 200H106.637C106.642 224.757 116.478 248.498 133.983 266.005C151.488 283.511 175.228 293.353 199.985 293.36ZM117.83 200C117.83 216.252 122.649 232.138 131.678 245.651C140.708 259.163 153.541 269.695 168.556 275.914C183.571 282.132 200.092 283.759 216.031 280.587C231.971 277.416 246.611 269.589 258.102 258.097C269.593 246.604 277.418 231.962 280.587 216.023C283.756 200.083 282.127 183.562 275.906 168.548C269.685 153.534 259.152 140.702 245.638 131.675C232.124 122.648 216.237 117.831 199.985 117.833C178.196 117.838 157.3 126.497 141.894 141.905C126.487 157.314 117.832 178.211 117.83 200ZM267.278 133.613L265.463 138.974L269.717 143.897L277.592 118.853L273.011 114.713L248.918 125.054L254.204 128.816L259.385 126.467L267.278 133.613ZM115.601 126.092L131.246 142.955L134.762 138.725L128.516 132.014L137.423 123.74L143.657 130.445L148.133 127.28L132.485 110.435L128.114 113.735L134.138 120.221L125.231 128.498L119.201 122L115.601 126.092ZM224.399 113.9L229.73 115.811L233.33 92.8701L228.092 91.2711L219.491 102.806L215.951 88.8621L210.551 88.3281L205.091 110.927L210.704 111.179L213.506 99.2631L216.377 108.386L220.277 109.136L226.547 101.864L224.399 113.9ZM165.101 93.2001L171.653 115.202L177.548 113.48L170.987 91.4781L165.101 93.2001ZM237.818 247.4C235.717 247.034 233.665 246.43 231.701 245.6C230.765 245.195 229.85 244.817 228.911 244.379C227.915 243.941 226.871 243.5 225.911 243.032L217.427 239.24C214.691 237.926 211.849 236.846 208.931 236.012C203.031 234.463 196.831 234.463 190.931 236.012C188 236.844 185.146 237.923 182.399 239.24L173.939 243.032C172.931 243.5 171.923 243.932 170.939 244.379C169.991 244.817 169.052 245.195 168.116 245.6C166.17 246.434 164.133 247.038 162.047 247.4C159.943 247.769 157.783 247.651 155.732 247.055C153.687 246.471 151.827 245.367 150.336 243.85C148.845 242.333 147.773 240.455 147.224 238.4C146.676 236.345 146.588 234.193 146.966 232.1C147.365 230.02 147.994 227.99 148.841 226.049C149.264 225.11 149.66 224.168 150.095 223.262C150.563 222.254 150.995 221.252 151.478 220.262L183.167 152.528C184.067 150.614 184.949 148.673 185.933 146.762C186.834 144.836 187.912 142.998 189.155 141.272C190.393 139.531 191.982 138.069 193.82 136.979C195.693 135.943 197.796 135.394 199.937 135.383C202.066 135.391 204.159 135.94 206.018 136.979C207.873 138.058 209.475 139.522 210.716 141.272C211.946 143.006 213.024 144.843 213.938 146.762C214.922 148.673 215.801 150.614 216.704 152.528L248.357 220.262C248.825 221.262 249.294 222.262 249.764 223.262C250.187 224.162 250.619 225.107 250.994 226.049C251.889 227.975 252.532 230.009 252.905 232.1C253.281 234.193 253.197 236.343 252.659 238.4C252.088 240.453 251.007 242.329 249.518 243.854C248.025 245.369 246.164 246.471 244.118 247.052C242.882 247.422 241.598 247.608 240.308 247.604C239.474 247.603 238.641 247.535 237.818 247.4ZM178.85 200C178.848 204.188 180.089 208.282 182.415 211.765C184.741 215.247 188.048 217.962 191.918 219.564C195.787 221.166 200.045 221.584 204.152 220.766C208.259 219.947 212.031 217.929 214.99 214.965C217.95 212.002 219.964 208.228 220.777 204.119C221.59 200.011 221.167 195.754 219.559 191.887C217.952 188.019 215.234 184.716 211.748 182.394C208.263 180.072 204.167 178.837 199.979 178.844C194.373 178.854 189.001 181.086 185.04 185.053C181.078 189.019 178.852 194.395 178.85 200ZM190.112 200C190.112 198.041 190.693 196.125 191.783 194.496C192.872 192.868 194.42 191.599 196.231 190.851C198.042 190.102 200.034 189.908 201.956 190.293C203.877 190.677 205.641 191.624 207.024 193.011C208.407 194.399 209.347 196.166 209.726 198.089C210.104 200.012 209.903 202.003 209.149 203.812C208.395 205.62 207.12 207.164 205.488 208.248C203.856 209.332 201.938 209.907 199.979 209.9C198.68 209.901 197.394 209.646 196.194 209.148C194.994 208.651 193.905 207.921 192.988 207.001C192.071 206.081 191.345 204.989 190.851 203.788C190.358 202.586 190.106 201.299 190.112 200ZM263.927 124.4L271.604 120.887L268.874 128.885L263.927 124.4Z" fill="black"/>
</svg>
