<svg width="400" height="400" viewBox="0 0 400 400" fill="none" xmlns="http://www.w3.org/2000/svg">
<mask id="mask0_2074_531" style="mask-type:luminance" maskUnits="userSpaceOnUse" x="116" y="127" width="58" height="160">
<path d="M147.015 128.132C148.612 127.201 150.594 128.356 150.594 130.219V219.266C150.594 220.124 151.052 220.925 151.787 221.353L172.469 233.483C173.203 233.912 173.662 234.713 173.662 235.57V284.053C173.662 285.917 171.662 287.091 170.084 286.159L118.386 255.843C116.918 254.986 116 253.383 116 251.651V149.113C116 147.38 116.918 145.778 118.386 144.921L147.015 128.132Z" fill="white"/>
</mask>
<g mask="url(#mask0_2074_531)">
<path d="M116 127.803H173.662V286.485H116V127.803Z" fill="black"/>
</g>
<mask id="mask1_2074_531" style="mask-type:luminance" maskUnits="userSpaceOnUse" x="190" y="93" width="111" height="215">
<path d="M300.479 93V307.771H190.935V93H300.479Z" fill="white"/>
</mask>
<g mask="url(#mask1_2074_531)">
<mask id="mask2_2074_531" style="mask-type:luminance" maskUnits="userSpaceOnUse" x="190" y="93" width="111" height="215">
<path d="M205.855 93.6428C207.324 92.7857 209.14 92.7857 210.627 93.6428L298.093 144.921C299.561 145.778 300.479 147.38 300.479 149.113V251.651C300.479 253.383 299.561 254.986 298.093 255.843L246.395 286.159C244.817 287.091 242.816 285.917 242.816 284.053V235.57C242.816 234.713 243.275 233.912 244.009 233.483L264.692 221.353C265.426 220.925 265.885 220.124 265.885 219.266V167.988C265.885 167.131 265.426 166.33 264.692 165.883L229.089 145.033C227.511 144.101 225.529 145.256 225.529 147.12V298.382L210.627 307.121C209.14 307.997 207.324 307.997 205.855 307.121L190.935 298.382V102.382L205.855 93.6428Z" fill="white"/>
</mask>
<g mask="url(#mask2_2074_531)">
<path d="M190.935 93H300.479V307.771H190.935V93Z" fill="black"/>
</g>
</g>
</svg>
