<svg width="400" height="400" viewBox="0 0 400 400" fill="none" xmlns="http://www.w3.org/2000/svg">
<path d="M144.718 102.407C144.554 102.734 136.923 127.662 127.786 157.791C118.649 187.919 109.053 219.586 106.466 228.124C103.879 236.662 101.881 243.761 102.012 243.892C102.176 244.055 111.837 244.121 123.529 244.088L144.783 243.99L146.323 239.083C147.141 236.368 151.923 220.6 156.966 203.982C161.977 187.396 166.169 173.82 166.267 173.82C166.366 173.82 168.101 179.316 170.132 185.989C172.162 192.696 176.944 208.496 180.776 221.091L187.719 243.99L208.973 244.088C220.698 244.121 230.359 244.055 230.523 243.892C230.654 243.761 227.706 233.489 223.94 221.091C220.174 208.66 211.528 180.199 204.749 157.791C187.915 102.244 188.177 103.062 187.817 102.407C187.555 101.884 186.179 101.851 166.267 101.851C146.355 101.851 144.98 101.884 144.718 102.407Z" fill="#0068E9"/>
<path d="M212.249 102.277C212.15 102.538 212.445 103.879 212.904 105.319C213.329 106.726 219.257 126.223 226.036 148.631C232.848 171.04 242.117 201.659 246.669 216.674L254.955 243.99L276.471 244.088L298.021 244.154L297.824 243.27C297.726 242.747 293.894 229.989 289.309 214.875C284.724 199.762 275.62 169.797 269.103 148.304C262.585 126.811 256.821 107.74 256.265 105.94C255.741 104.141 255.118 102.473 254.955 102.244C254.431 101.655 212.511 101.655 212.249 102.277Z" fill="#0068E9"/>
<path d="M86.03 268.852C82.1655 269.931 78.8577 273.137 77.5477 277.128C76.86 279.189 76.8272 279.811 76.9255 287.498L77.0237 295.677H80.135H83.2462L83.41 287.335C83.541 280.432 83.672 278.829 84.0977 278.012C85.7352 275.067 89.2722 274.151 92.1542 275.918C94.2502 277.227 94.3485 277.75 94.545 287.171L94.7087 295.677H97.82H100.931L101.095 287.335C101.193 282.166 101.422 278.666 101.652 278.142C102.241 276.834 104.173 275.329 105.614 275.067C107.972 274.675 110.199 275.787 111.968 278.273C112.001 278.306 112.099 282.232 112.197 287.008L112.394 295.677H115.505H118.616V286.681V277.685L117.732 275.82C114.359 268.656 105.647 266.235 99.5885 270.847C98.8025 271.469 98.0492 271.96 97.9182 271.96C97.82 271.96 97.2305 271.567 96.6082 271.109C93.5625 268.787 89.436 267.903 86.03 268.852Z" fill="black"/>
<path d="M133.026 268.787C125.527 271.273 121.269 278.764 123.201 286.125C123.856 288.676 124.675 290.181 126.476 292.177C129.064 295.023 133.583 297.149 137.12 297.149C141.705 297.116 147.011 294.041 149.467 289.919C153.79 282.69 150.941 273.432 143.212 269.637C141.116 268.623 140.624 268.525 137.644 268.459C135.548 268.394 133.845 268.525 133.026 268.787ZM140.559 274.871C146.88 277.717 147.207 286.844 141.083 290.017C136.924 292.177 131.651 290.574 129.653 286.583C127.524 282.33 129.096 277.259 133.157 275.166C135.319 274.053 138.463 273.923 140.559 274.871Z" fill="black"/>
<path d="M165.089 268.688C161.519 269.441 158.309 272.058 156.639 275.558L155.624 277.685V286.681V295.677H158.735H161.846L162.01 287.171C162.108 281.381 162.305 278.437 162.567 277.979C162.796 277.586 163.484 276.834 164.106 276.278C166.693 274.021 170.722 274.871 172.457 278.012C172.883 278.829 173.014 280.432 173.145 287.335L173.309 295.677H176.42H179.531L179.695 287.008C179.859 278.502 179.859 278.306 180.645 277.227C181.529 276.016 183.625 274.904 185.099 274.904C186.573 274.904 188.669 276.016 189.553 277.227C190.339 278.306 190.339 278.502 190.503 287.008L190.666 295.677H193.778H196.889V286.354V277.03L196.005 275.329C194.171 271.862 191.518 269.768 187.883 268.819C184.444 267.936 180.71 268.787 177.632 271.109C177.01 271.567 176.42 271.96 176.289 271.96C176.158 271.96 175.503 271.502 174.815 270.978C172.392 269.016 168.167 268.034 165.089 268.688Z" fill="black"/>
<path d="M211.135 268.95C204.487 271.142 200.393 277.75 201.343 284.685C202.096 290.083 205.698 294.303 211.299 296.331C214.115 297.345 216.506 297.378 219.355 296.462C222.794 295.35 225.741 293.256 227.346 290.803C228.361 289.265 227.903 288.971 224.268 288.971C222.466 288.971 220.927 289.101 220.829 289.265C220.731 289.429 219.977 289.854 219.159 290.246C217.423 291.064 213.984 291.195 212.314 290.475C210.349 289.658 207.86 287.008 207.86 285.732C207.86 285.503 211.495 285.339 218.766 285.307L229.639 285.209L229.737 282.821C229.835 280.105 229.213 277.521 227.968 275.362C226.757 273.301 223.842 270.749 221.386 269.572C219.453 268.688 218.733 268.525 216.047 268.459C213.722 268.394 212.478 268.525 211.135 268.95ZM219.159 275.035C220.076 275.46 221.124 276.147 221.484 276.572C222.27 277.456 223.58 279.517 223.58 279.876C223.58 280.171 208.056 280.236 207.762 279.942C207.467 279.615 208.679 277.456 209.727 276.474C212.117 274.217 216.113 273.595 219.159 275.035Z" fill="black"/>
<path d="M244.049 269.016C238.612 270.978 234.879 275.395 234.06 280.956C233.863 282.199 233.765 286.026 233.798 289.461L233.896 295.677H237.007H240.119L240.282 288.316L240.446 280.956L241.429 279.189C243.001 276.343 245.424 274.904 248.699 274.904C250.926 274.904 252.793 275.656 254.299 277.194C256.428 279.287 256.494 279.549 256.657 287.989L256.821 295.677H259.932H263.044V287.466V279.287L261.799 276.769C260.227 273.595 257.967 271.338 254.791 269.768C252.629 268.721 252.072 268.59 249.19 268.459C246.57 268.361 245.686 268.459 244.049 269.016Z" fill="black"/>
<path d="M265.402 268.59C265.271 268.688 265.172 270.16 265.172 271.829V274.871L270.183 274.969L275.161 275.067L275.325 285.372L275.489 295.677H278.6H281.711L281.875 285.372L282.039 275.067L287.115 274.904L292.191 274.74V271.633V268.525L278.895 268.427C271.591 268.394 265.533 268.459 265.402 268.59Z" fill="black"/>
<path d="M304.112 269.114C300.182 270.455 297.3 273.039 295.532 276.801C294.549 278.862 294.484 279.222 294.484 282.755C294.484 286.353 294.549 286.648 295.532 288.643C297.431 292.503 299.593 294.466 303.818 296.2C307.715 297.77 310.695 297.509 315.706 295.186C316.492 294.793 316.656 294.826 317.016 295.317C317.343 295.775 317.867 295.84 320.193 295.775L322.976 295.677L323.075 288.349C323.173 280.432 323.042 279.614 321.273 276.081C318.195 269.964 310.63 266.889 304.112 269.114ZM311.088 274.577C311.776 274.773 312.955 275.394 313.708 275.983C317.605 278.96 318.064 285.143 314.625 288.578C311.154 292.045 306.077 292.045 302.671 288.545C296.547 282.232 302.573 272.221 311.088 274.577Z" fill="black"/>
</svg>
