<svg width="400" height="400" viewBox="0 0 400 400" fill="none" xmlns="http://www.w3.org/2000/svg">
<g clip-path="url(#clip0_2074_534)">
<path fill-rule="evenodd" clip-rule="evenodd" d="M319.831 119.923V278.658H169.594V260.02C172.772 260.373 175.951 260.55 179.304 260.55C214.083 260.55 275.431 242.795 301.736 220.711C297.852 216.825 279.049 207.903 274.46 204.193C246.742 228.043 218.144 248.271 178.599 248.271C175.597 248.271 172.507 248.006 169.507 247.653V234.403C173.126 235.021 176.745 235.375 180.452 235.375C222.91 235.375 263.692 185.731 263.692 185.731C263.692 185.731 228.118 139.18 173.655 141.035L169.417 141.3V119.923H319.831ZM173.655 152.783C212.847 151.546 238.534 186.526 238.534 186.526C238.534 186.526 210.816 225.04 181.069 225.04C177.098 225.04 173.214 224.421 169.507 223.185V179.725C184.776 181.58 187.866 188.293 196.958 203.575L217.35 186.438C217.35 186.438 202.431 166.916 177.362 166.916C174.715 166.828 172.067 167.005 169.417 167.27V152.966C126.136 156.36 104.539 188.293 104.539 188.293C104.539 188.293 121.046 241.646 169.417 247.653V260.02C103.48 253.836 80 185.82 80 185.82C80 185.82 121.487 145.186 169.507 141.3V152.954C170.889 152.868 172.271 152.783 173.655 152.783ZM169.417 234.491C132.874 227.955 122.723 189.883 122.723 189.883C122.723 189.883 140.289 170.45 169.417 167.27V179.636H169.33C154.058 177.781 142.054 192.091 142.054 192.091C142.054 192.091 148.85 216.206 169.417 223.185V234.491Z" fill="#76B900"/>
</g>
<defs>
<clipPath id="clip0_2074_534">
<rect width="240" height="159" fill="white" transform="translate(80 120)"/>
</clipPath>
</defs>
</svg>
