<svg width="400" height="400" viewBox="0 0 400 400" fill="none" xmlns="http://www.w3.org/2000/svg">
<mask id="mask0_2074_532" style="mask-type:luminance" maskUnits="userSpaceOnUse" x="80" y="138" width="240" height="124">
<path d="M320 138H80V262H320V138Z" fill="white"/>
</mask>
<g mask="url(#mask0_2074_532)">
<path d="M310.954 142.514C300.956 135.044 286.764 137.053 279.256 147.001L246.774 188.815C239.426 198.186 225.305 198.544 217.488 189.557L187.457 155.006C172.416 137.718 145.249 138.407 131.113 156.433L86.3818 213.496C76.1349 226.576 78.4804 245.445 91.6249 255.645C104.769 265.848 123.735 263.519 133.994 250.446L166.045 209.575C178.032 194.287 201.069 193.704 213.822 208.364L232.254 229.553C243.596 242.591 264.104 242.001 274.669 228.332L315.488 174.017C322.966 164.07 320.942 149.974 310.954 142.514Z" fill="#FF3D00"/>
</g>
</svg>
