<svg width="400" height="400" viewBox="0 0 400 400" fill="none" xmlns="http://www.w3.org/2000/svg">
<g clip-path="url(#clip0_2074_528)">
<path d="M173.305 92.1184C188.352 86.1641 205.359 85.4015 220.918 89.8599C234.384 93.717 246.708 101.49 256.002 111.976C267.901 125.234 274.737 142.877 274.883 160.71C263.598 160.798 252.299 160.666 241.014 160.769C240.736 155.841 239.975 150.899 238.072 146.309C234.032 136.086 225.631 127.727 215.4 123.767C205.652 119.91 194.397 120.115 184.81 124.339C175.896 128.182 168.519 135.383 164.421 144.182C162.035 149.271 160.747 154.873 160.674 160.505C149.257 160.608 137.826 160.52 126.41 160.549C126.366 158.774 126.542 157 126.263 155.255C126.088 154.111 126.512 152.996 126.629 151.867C128.4 137.788 134.416 124.295 143.564 113.472C151.511 104.027 161.83 96.6208 173.305 92.1184Z" fill="#97DBE5"/>
<path d="M126.088 160.652C137.592 160.666 149.082 160.622 160.572 160.681C160.542 162.632 160.528 164.597 160.615 166.547C160.469 187.285 160.586 208.022 160.542 228.774C160.542 256.83 160.572 284.886 160.542 312.956C149.067 312.985 137.592 312.956 126.117 312.971C126.059 277.465 126.117 241.974 126.088 206.482C126.029 194.779 126.22 183.061 126 171.358V166.826C126.102 164.773 126.117 162.72 126.088 160.652Z" fill="#97DBE5"/>
<path d="M160.615 166.547C160.806 169.437 160.967 172.355 161.669 175.186C164.157 186.317 171.681 196.158 181.707 201.54C189.757 205.94 199.344 207.392 208.345 205.646C218.02 203.842 226.904 198.269 232.817 190.379C237.97 183.618 240.824 175.156 240.926 166.65C252.24 166.621 263.554 166.635 274.883 166.635C274.751 184.337 268.004 201.848 256.28 215.091C242.463 230.901 221.679 240.566 200.632 240.287C186.522 240.551 172.442 236.327 160.542 228.774C160.586 208.022 160.469 187.285 160.615 166.547Z" fill="#9A9A9A"/>
</g>
<defs>
<clipPath id="clip0_2074_528">
<rect width="149" height="226" fill="white" transform="translate(126 87)"/>
</clipPath>
</defs>
</svg>
