<svg width="400" height="400" viewBox="0 0 400 400" fill="none" xmlns="http://www.w3.org/2000/svg">
<g clip-path="url(#clip0_2074_533)">
<path d="M200.064 318.915L233.625 130.132C265.615 130.132 275.704 133.641 277.161 147.962C277.161 147.962 298.621 139.959 309.444 123.705C267.208 104.129 224.772 103.248 224.772 103.248L200.008 133.414L200.064 133.41L175.302 103.242C175.302 103.242 132.864 104.127 90.6338 123.701C101.447 139.954 122.915 147.958 122.915 147.958C124.38 133.637 134.459 130.128 166.233 130.105L200.064 318.915Z" fill="black"/>
<path d="M200.052 94.534C234.192 94.2719 273.271 99.8155 313.277 117.256C318.624 107.629 319.998 103.376 319.998 103.376C276.268 86.0699 235.313 80.1486 200.048 80C164.782 80.1486 123.829 86.072 80.1033 103.376C80.1033 103.376 82.0555 108.616 86.8204 117.256C126.818 99.8155 165.905 94.2719 200.048 94.534H200.052Z" fill="black"/>
</g>
<defs>
<clipPath id="clip0_2074_533">
<rect width="240" height="239" fill="white" transform="translate(80 80)"/>
</clipPath>
</defs>
</svg>
