<svg width="400" height="400" viewBox="0 0 400 400" fill="none" xmlns="http://www.w3.org/2000/svg">
<path fill-rule="evenodd" clip-rule="evenodd" d="M120.5 268.924L113.89 290.452L107.202 268.924H101.341L94.728 290.452L88.0399 268.924H80L91.5732 301.74H97.8076L104.27 281.117L110.808 301.74H116.969L128.54 268.924H120.5ZM156.494 278.334L160.401 291.806H152.437L156.494 278.334ZM163.556 301.74H171.897L160.025 268.924H153.036L141.315 301.74H149.355L150.633 297.751H162.279L163.556 301.74ZM215.554 268.924H206.762L199.776 281.871L192.786 268.924H183.919L195.941 290.075V301.74H203.607V290.075L215.554 268.924ZM267.101 301.74V268.924H258.534L249.893 291.806L241.101 268.924H232.386V301.74H239.749V281.419L247.037 301.74H252.674L259.736 281.419V301.74H267.101ZM312.334 285.332C312.334 290.753 308.652 295.795 302.716 295.719C296.705 295.719 293.099 290.678 293.099 285.332C293.099 279.989 296.705 274.948 302.716 274.948C308.652 274.948 312.334 279.914 312.334 285.332ZM285.36 285.332C285.36 294.365 291.82 302.645 302.717 302.569C313.538 302.569 320 294.29 320 285.332C320 276.377 313.613 268.098 302.717 268.098C291.82 268.098 285.36 276.302 285.36 285.332Z" fill="#949A9F"/>
<path fill-rule="evenodd" clip-rule="evenodd" d="M218.221 130.001L181.361 108.751L132.112 194.467L168.972 215.718L218.221 130.001ZM230.529 194.404L267.389 215.652L316.638 129.936L279.778 108.688L230.529 194.404Z" fill="#0078FF"/>
<path fill-rule="evenodd" clip-rule="evenodd" d="M319.472 119.354C319.472 107.611 310.005 98.0528 298.206 98.0528C286.485 98.0528 276.943 107.611 276.943 119.354C276.943 131.095 286.485 140.653 298.206 140.653C309.93 140.653 319.472 131.095 319.472 119.354ZM150.557 226.382C154.163 226.382 157.769 225.48 161.15 223.523C171.296 217.652 174.827 204.63 168.967 194.394L119.749 108.741C113.889 98.5049 100.888 95.041 90.6693 100.914C80.4505 106.784 76.9945 119.804 82.8554 129.965L132.073 215.696C136.055 222.544 143.192 226.382 150.557 226.382ZM248.989 226.382C252.598 226.382 256.279 225.48 259.584 223.523C269.729 217.652 273.262 204.63 267.399 194.394L218.184 108.666C212.321 98.5049 199.323 94.968 189.104 100.839C178.96 106.709 175.427 119.729 181.29 129.965L230.507 215.696C234.489 222.544 241.626 226.382 248.989 226.382Z" fill="#00E89D"/>
</svg>
