<svg width="400" height="400" viewBox="0 0 400 400" fill="none" xmlns="http://www.w3.org/2000/svg">
<path d="M304.903 156.428C301.307 148.32 299.122 143.036 293.769 136.059C292.526 134.438 291.478 133.198 291.478 133.198C287.507 131.932 284.03 135.028 284.855 139.155C299.305 157.137 304.685 177.6 304.685 200.84C304.685 224.08 291.064 246.144 259.225 246.23H259.089C234.503 246.23 214.764 228.131 213.149 204.082C212.546 195.062 214.906 180.543 224.579 166.379C235.402 150.127 259.437 133.642 291.578 121.274C292.009 121.119 292.214 120.989 292.221 120.877C289.562 120.592 286.851 120.409 284.116 120.307C282.983 120.303 281.793 120.307 280.589 120.307C272.995 120.307 265.315 120.655 257.628 121.39C245.164 122.706 235.166 124.725 232.16 125.368C220.538 127.927 209.102 131.531 198.133 136.37C157.702 154.207 125.512 188.82 115.19 227.564C114.971 226.828 114.762 226.089 114.563 225.346C110.287 209.521 110.062 192.739 114.076 176.668C125.061 132.684 164.667 103.249 208.081 103.249C215.828 103.249 223.704 104.187 231.553 106.146C231.709 106.185 231.865 106.229 232.021 106.265C234.52 106.911 246.211 110.226 250.842 113.027C256.391 112.557 262.079 112.291 267.436 112.159C264.827 110.418 262.136 108.781 259.374 107.269C251.366 102.844 242.774 99.4497 233.787 97.2056C206.294 90.3373 177.77 94.5869 153.473 109.175C129.175 123.761 112.011 146.934 105.146 174.431C102.922 183.341 101.884 192.45 102.01 201.526V201.533C102.789 253.913 141.503 297.092 191.891 304.869C192.157 304.912 192.425 304.952 192.694 304.991C193.028 305.041 193.363 305.091 193.701 305.137C196.807 305.555 200.928 306.135 206.198 306.135C212.927 306.135 217.27 305.084 216.719 303.652C216.1 302.038 211.797 301.242 203.069 294.868C199.602 292.219 195.392 288.53 191.219 283.694C178.211 268.635 171.674 250.158 171.784 228.777C171.906 205.106 179.951 184.647 195.697 167.967C207.186 155.795 222.991 145.367 242.873 136.801C239.588 139.291 235.906 142.31 231.596 146.003C215.848 158.987 208.91 173.46 206.042 186.543C204.465 192.775 203.808 198.964 204.189 204.692C206.125 233.531 229.717 255.233 259.099 255.233C259.152 255.233 259.209 255.233 259.262 255.233C274.205 255.193 287.265 250.164 297.18 241.075C307.983 231.174 313.691 217.262 313.691 200.847C313.691 185.443 311.158 170.499 304.917 156.435L304.903 156.428ZM162.953 228.728C162.801 258.292 174.754 278.241 184.808 289.77C186.555 291.772 188.298 293.588 190.002 295.239C186.896 294.659 183.84 293.94 180.843 293.071C180.237 292.896 179.633 292.717 179.03 292.524C176.736 291.795 175.546 291.404 174.114 290.85C174.098 290.844 174.084 290.837 174.068 290.834C173.736 290.705 173.388 290.569 173.014 290.416C171.485 289.816 169.974 289.193 168.486 288.517C156.211 282.955 145.292 274.893 136.362 264.975C135.729 264.236 135.079 263.473 134.403 262.671C127.882 254.938 124.461 245.229 124.352 235.36C124.296 230.123 125.168 224.843 127.014 219.787C134.578 199.047 148.955 179.748 168.986 163.867C187.456 149.225 209.182 137.434 231.222 132.409C186.097 154.194 163.172 186.467 162.953 228.728Z" fill="#1A1731"/>
</svg>
