<svg width="400" height="400" viewBox="0 0 400 400" fill="none" xmlns="http://www.w3.org/2000/svg">
<g clip-path="url(#clip0_2074_545)">
<path d="M102.586 116.802C101.899 116.991 100.787 117.239 100.1 117.429C99.4124 117.604 98.2861 118.114 97.5402 118.479C96.7211 118.785 95.5364 119.47 94.849 119.908C94.1762 120.403 92.9914 121.336 92.304 122.022C91.6166 122.707 90.5488 123.888 89.9345 124.632C89.3056 125.448 88.6182 126.688 88.1209 127.621C87.6821 128.496 87.1848 129.677 86.9946 130.231C86.8045 130.858 86.4974 131.849 86.3803 132.593L86.0586 133.832C86.0001 236.656 86.0001 254.62 86.1317 256.296C86.1902 257.55 86.3803 259.533 86.5559 260.656C86.6875 261.779 86.9361 263.514 87.1263 264.578C87.3164 265.57 87.6821 267.363 87.9892 268.617C88.311 269.798 88.8668 271.781 89.2471 273.021C89.6859 274.275 90.3587 276.258 90.8706 277.439C91.2948 278.62 92.304 280.865 93.1084 282.411C93.8544 283.898 94.9221 286.012 95.5364 287.018C96.1653 288.01 97.1014 289.497 97.6572 290.313C98.1545 291.115 99.2222 292.544 99.9682 293.536C100.714 294.542 101.899 296.029 102.645 296.831C103.332 297.706 104.897 299.324 106.14 300.564C107.325 301.745 109.08 303.363 109.943 304.107C110.879 304.923 112.137 305.915 112.752 306.352C113.38 306.848 114.375 307.592 115.004 308.029C115.618 308.467 116.803 309.268 117.622 309.764C118.485 310.333 120.109 311.251 121.235 311.878C122.361 312.505 124.102 313.439 125.169 313.876C126.222 314.372 127.846 315.057 128.723 315.422C129.586 315.728 131.151 316.296 132.205 316.661C133.272 317.04 135.013 317.536 136.139 317.842C137.265 318.09 139.137 318.527 140.249 318.775C141.375 318.965 143.306 319.271 144.491 319.402C145.675 319.592 147.679 319.781 148.864 319.84C150.107 319.898 151.862 319.956 152.784 319.956C153.72 319.956 155.475 319.898 156.66 319.84C157.903 319.781 159.834 319.592 161.018 319.402C162.276 319.271 164.017 318.965 165.011 318.848C166.006 318.658 167.878 318.221 169.194 317.915C170.496 317.594 172.617 316.982 173.875 316.544C175.177 316.107 177.049 315.422 178.043 314.984C179.111 314.547 181.1 313.614 182.475 312.943C183.908 312.258 186.029 311.076 187.214 310.391C188.34 309.706 190.022 308.641 190.827 308.029C191.646 307.46 192.947 306.469 193.767 305.915C194.513 305.288 195.814 304.238 196.692 303.422C197.628 302.678 198.505 301.803 198.754 301.555C199.003 301.307 199.31 301.059 199.368 301.059C199.442 301.059 200.056 301.555 200.743 302.182C201.431 302.867 202.674 303.917 203.552 304.603C204.371 305.346 205.731 306.411 206.55 306.965C207.296 307.592 208.729 308.525 209.724 309.152C210.66 309.764 212.035 310.639 212.781 311.076C213.6 311.514 215.15 312.374 216.335 312.943C217.461 313.497 219.085 314.241 219.831 314.62C220.577 314.926 222.01 315.48 223.005 315.859C224.014 316.238 225.564 316.734 226.559 317.04C227.568 317.346 229.191 317.784 230.245 318.032C231.239 318.279 232.921 318.658 233.93 318.848C234.925 319.023 236.724 319.271 237.909 319.46C239.035 319.592 240.966 319.781 242.223 319.84C243.408 319.898 245.149 319.956 246.085 319.956C247.021 319.956 248.835 319.898 250.019 319.84C251.204 319.781 252.945 319.592 253.822 319.533C254.758 319.402 256.25 319.154 257.128 319.023C258.064 318.906 259.614 318.6 260.609 318.352C261.545 318.163 263.358 317.725 264.485 317.346C265.669 317.04 267.41 316.486 268.405 316.107C269.414 315.801 270.964 315.174 271.959 314.736C272.968 314.372 274.899 313.439 276.332 312.695C277.765 311.937 279.828 310.829 280.939 310.143C282.124 309.4 283.689 308.394 284.493 307.84C285.254 307.285 286.746 306.163 287.74 305.346C288.735 304.603 290.432 303.115 291.485 302.182C292.479 301.249 294.103 299.572 295.097 298.581C296.034 297.516 297.467 295.84 298.286 294.848C299.09 293.784 300.334 292.18 301.021 291.174C301.709 290.182 302.776 288.505 303.391 287.456C304.02 286.391 305.087 284.525 305.702 283.227C306.389 281.973 307.267 279.99 307.764 278.809C308.261 277.686 309.007 275.631 309.446 274.391C309.885 273.152 310.499 270.848 310.879 269.361C311.26 267.859 311.684 265.818 311.874 264.753C312.064 263.703 312.313 262.027 312.371 261.093C312.503 260.102 312.693 258.294 312.751 257.113C312.81 255.742 312.868 244.617 312.868 227.266C312.868 208.996 312.81 199.606 312.751 199.606C312.693 199.548 312.503 199.665 312.313 199.912C312.122 200.102 311.318 201.093 310.44 202.1C309.563 203.091 307.954 204.826 306.945 205.891C305.892 206.999 304.268 208.559 303.332 209.361C302.455 210.177 301.094 211.358 300.275 212.044C299.529 212.656 298.096 213.779 297.028 214.522C296.034 215.339 294.352 216.52 293.298 217.205C292.231 217.891 290.607 218.94 289.744 219.494C288.808 220.005 287.185 220.938 286.117 221.492C285.064 222.046 283.25 222.979 282.007 223.548C280.822 224.102 278.95 224.904 277.897 225.341C276.771 225.837 275.147 226.406 274.27 226.712L272.646 227.339C272.646 249.837 272.588 255.188 272.471 255.99C272.397 256.734 272.222 257.915 272.09 258.6C271.959 259.344 271.593 260.656 271.286 261.531C271.037 262.391 270.467 263.82 270.028 264.637C269.662 265.439 269.033 266.62 268.726 267.115C268.346 267.684 267.79 268.486 267.468 268.982C267.103 269.477 266.357 270.352 265.86 270.979C265.362 271.533 264.236 272.598 263.417 273.268C262.671 274.027 261.428 274.887 260.799 275.324C260.111 275.762 258.751 276.564 257.742 277.074C256.747 277.57 255.197 278.182 254.319 278.503C253.442 278.751 252.14 279.115 251.38 279.247C250.634 279.436 249.522 279.611 248.761 279.684C248.074 279.742 246.889 279.801 246.085 279.801C245.339 279.801 244.154 279.742 243.408 279.684C242.721 279.611 241.536 279.436 240.79 279.247C240.103 279.115 238.786 278.809 238.04 278.561C237.236 278.255 235.978 277.818 235.232 277.497C234.486 277.132 233.36 276.564 232.672 276.141C231.985 275.762 230.8 274.96 230.054 274.391C229.367 273.837 228.182 272.846 227.436 272.087C226.69 271.344 225.637 270.236 225.125 269.477C224.628 268.792 223.824 267.742 223.443 267.057C223.005 266.43 222.39 265.322 222.068 264.637C221.761 263.951 221.322 262.829 221.074 262.216C220.825 261.531 220.518 260.35 220.328 259.592C220.138 258.848 219.889 257.55 219.772 256.675C219.582 255.378 219.582 253.016 219.582 241.191V227.339C217.578 226.581 215.896 225.968 214.594 225.473C213.278 224.977 211.289 224.102 210.104 223.548C208.919 222.979 206.916 221.988 205.672 221.302C204.371 220.617 202.425 219.494 201.372 218.824C200.246 218.138 198.447 216.957 197.321 216.141C196.195 215.339 194.454 214.1 193.518 213.283C192.509 212.539 191.017 211.3 190.139 210.542C189.335 209.798 187.711 208.311 186.527 207.188C185.4 206.08 183.791 204.389 182.972 203.456C182.168 202.595 181.042 201.283 180.544 200.671C179.974 200.044 179.55 199.548 179.477 199.606C179.36 199.606 179.301 208.938 179.301 227.149C179.301 245.171 179.301 254.999 179.17 255.874C179.111 256.617 178.921 257.798 178.789 258.542C178.614 259.285 178.233 260.656 177.985 261.531C177.678 262.391 177.107 263.82 176.668 264.753C176.244 265.686 175.484 266.94 175.118 267.553C174.738 268.18 173.992 269.171 173.495 269.798C173.056 270.411 172.178 271.344 171.564 271.971C170.993 272.525 170.072 273.4 169.502 273.837C169.004 274.275 167.951 275.018 167.191 275.514C166.503 275.951 165.143 276.695 164.207 277.132C163.329 277.57 161.837 278.182 160.96 278.503C160.082 278.751 158.78 279.115 158.093 279.247C157.347 279.436 156.162 279.611 155.475 279.684C154.729 279.742 153.544 279.801 152.784 279.801C152.038 279.801 150.795 279.742 150.107 279.684C149.361 279.611 148.235 279.436 147.489 279.247C146.743 279.115 145.427 278.751 144.564 278.503C143.686 278.182 142.311 277.628 141.507 277.249C140.688 276.812 139.445 276.141 138.699 275.631C137.88 275.135 136.768 274.275 136.08 273.706C135.452 273.152 134.457 272.219 133.828 271.592C133.272 270.979 132.395 269.915 131.839 269.23C131.342 268.544 130.654 267.611 130.347 267.115C130.084 266.62 129.528 265.628 129.162 264.943C128.84 264.199 128.343 263.076 128.036 262.464C127.787 261.779 127.407 260.598 127.158 259.723C126.968 258.921 126.661 257.667 126.53 256.982C126.354 255.801 126.281 252.258 126.222 195.013C126.164 137.011 126.164 134.27 125.915 133.089C125.784 132.403 125.476 131.106 125.169 130.231C124.847 129.356 124.292 128.058 123.911 127.315C123.546 126.498 122.858 125.448 122.42 124.821C122.039 124.267 121.045 123.145 120.299 122.401C119.363 121.468 118.368 120.651 117.373 119.966C116.554 119.412 115.37 118.727 114.755 118.479C114.126 118.172 113.132 117.793 112.561 117.604C111.947 117.356 110.938 117.108 110.265 116.991C109.387 116.744 108.451 116.685 106.521 116.612C104.4 116.612 103.712 116.612 102.586 116.802Z" fill="#00C8C8"/>
<path fill-rule="evenodd" clip-rule="evenodd" d="M245.778 80C247.211 80 249.259 80.0583 250.326 80.1312C251.453 80.1896 253.325 80.3791 254.51 80.5541C255.694 80.6853 257.493 80.9915 258.488 81.1227C259.424 81.3123 261.296 81.7351 262.554 82.0559C263.856 82.3621 265.786 82.9162 266.971 83.2953C268.097 83.6744 269.838 84.2868 270.847 84.7242C271.842 85.1033 273.714 85.9052 274.957 86.5322C276.2 87.1446 278.014 88.0778 279.009 88.6464C279.945 89.1422 281.875 90.3232 283.192 91.1835C284.493 92.0583 286.19 93.2977 286.994 93.9247C287.799 94.5516 289.174 95.6598 290.051 96.418C290.929 97.1616 292.67 98.8384 293.986 100.136C295.229 101.448 296.911 103.315 297.657 104.248C298.476 105.181 299.661 106.727 300.334 107.733C301.094 108.724 302.089 110.211 302.586 111.028C303.142 111.888 304.078 113.448 304.707 114.571C305.263 115.621 306.199 117.429 306.696 118.479C307.193 119.601 307.881 121.22 308.261 122.08C308.568 122.955 309.139 124.442 309.446 125.448C309.826 126.44 310.323 128.117 310.631 129.166C310.938 130.289 311.318 132.039 311.567 133.089C311.757 134.153 312.064 135.83 312.196 136.763C312.371 137.755 312.561 139.679 312.693 140.991C312.868 142.916 312.868 144.462 312.81 147.888C312.81 150.746 312.693 152.919 312.561 154.1C312.444 155.033 312.196 156.593 312.064 157.526C311.947 158.459 311.567 160.136 311.318 161.317C311.069 162.425 310.631 164.292 310.25 165.414C309.943 166.595 309.387 168.345 309.007 169.337C308.641 170.386 307.954 172.136 307.457 173.317C306.945 174.498 306.082 176.292 305.453 177.414C304.897 178.464 304.078 180.024 303.581 180.768C303.142 181.512 302.279 182.882 301.709 183.757C301.153 184.632 300.158 185.988 299.588 186.804C298.973 187.548 298.096 188.729 297.599 189.283C297.101 189.852 295.975 191.149 295.097 192.141C294.161 193.074 292.611 194.634 291.616 195.567C290.607 196.501 289.305 197.623 288.808 198.061C288.238 198.556 286.995 199.49 286.058 200.16C285.122 200.919 283.572 201.968 282.636 202.595C281.7 203.208 280.193 204.141 279.257 204.637C278.321 205.205 276.712 206.08 275.645 206.576C274.518 207.13 272.836 207.874 271.842 208.311C270.847 208.69 268.843 209.492 267.351 209.93C265.86 210.425 263.549 211.111 262.174 211.475C260.799 211.796 258.868 212.233 257.815 212.408C256.747 212.598 254.875 212.846 253.573 212.977C252.033 213.181 250.034 213.303 247.577 213.341C245.28 213.414 243.028 213.341 241.595 213.283C240.351 213.166 238.669 213.035 237.85 212.919C236.987 212.787 235.612 212.598 234.735 212.481C233.857 212.292 232.307 212.044 231.371 211.796C230.376 211.606 228.811 211.169 227.934 210.921C227.071 210.673 225.637 210.236 224.701 209.93C223.824 209.682 222.2 209.055 221.074 208.617C220.021 208.121 218.266 207.378 217.212 206.94C216.218 206.445 214.536 205.57 213.527 205.016C212.532 204.462 211.04 203.529 210.221 203.033C209.417 202.522 208.1 201.662 207.237 201.035C206.418 200.423 205.234 199.548 204.619 199.052C203.99 198.556 202.864 197.623 202.177 196.996C201.431 196.369 199.88 194.94 198.754 193.832C197.628 192.71 196.136 191.091 195.39 190.289C194.703 189.414 193.518 187.927 192.772 186.994C192.011 185.988 191.017 184.632 190.578 183.947C190.081 183.261 189.203 181.832 188.589 180.841C188.018 179.835 187.024 178.041 186.41 176.787C185.781 175.606 184.976 173.813 184.537 172.748C184.099 171.757 183.411 169.949 182.972 168.768C182.534 167.529 181.978 165.721 181.671 164.729C181.422 163.679 180.983 161.93 180.735 160.748C180.486 159.567 180.106 157.584 179.915 156.345C179.725 155.033 179.55 153.225 179.418 152.233C179.36 151.242 179.301 148.821 179.301 146.765C179.301 144.71 179.36 142.231 179.418 141.298C179.55 140.306 179.667 138.804 179.798 138.002C179.915 137.128 180.164 135.64 180.354 134.576C180.486 133.584 180.91 131.791 181.232 130.61C181.48 129.356 182.036 127.49 182.417 126.382C182.724 125.259 183.411 123.334 183.908 122.153C184.406 120.899 185.225 119.047 185.781 117.925C186.278 116.802 187.097 115.183 187.521 114.382C188.018 113.565 188.837 112.267 189.335 111.392C189.891 110.518 190.768 109.162 191.265 108.476C191.763 107.733 192.699 106.479 193.328 105.677C193.957 104.86 195.068 103.563 195.814 102.688C196.575 101.886 197.877 100.457 198.754 99.582C199.632 98.7072 200.992 97.4095 201.811 96.7242C202.674 95.9806 203.99 94.8578 204.795 94.2309C205.614 93.5456 207.047 92.4957 208.042 91.8104C209.036 91.1252 210.66 90.0753 211.728 89.4484C212.781 88.8214 214.711 87.7716 215.969 87.1446C217.271 86.5322 219.085 85.6574 220.079 85.2199C221.074 84.7825 222.697 84.1701 223.633 83.8493C224.628 83.4848 226.383 82.9162 227.568 82.61C228.753 82.2309 230.493 81.808 231.488 81.6185C232.424 81.3706 234.179 81.0498 235.232 80.8748C236.358 80.6853 238.23 80.4374 239.415 80.3791C240.6 80.2479 241.975 80.1312 242.399 80.0583C242.838 80.0583 244.344 80.0583 245.778 80ZM239.971 117.298C239.357 117.429 238.172 117.735 237.353 117.983C236.548 118.231 235.232 118.668 234.428 119.047C233.682 119.354 232.497 119.908 231.927 120.228C231.371 120.535 230.245 121.22 229.499 121.716C228.753 122.211 227.568 123.086 226.88 123.582C226.252 124.136 225.125 125.2 224.379 125.944C223.633 126.746 222.697 127.81 222.259 128.423C221.82 128.991 221.147 129.925 220.767 130.537C220.386 131.106 219.64 132.403 219.085 133.468C218.587 134.518 217.9 136.267 217.52 137.259C217.212 138.25 216.774 139.869 216.584 140.744C216.393 141.662 216.218 143.106 216.086 143.966C216.028 144.957 215.969 146.386 216.028 147.757C216.086 149.011 216.218 150.615 216.393 151.49C216.525 152.365 216.774 153.546 216.905 154.1C217.022 154.595 217.329 155.66 217.578 156.345C217.841 157.03 218.266 158.211 218.587 158.882C218.895 159.64 219.582 160.88 220.021 161.682C220.46 162.498 221.264 163.679 221.703 164.292C222.142 164.919 223.004 165.983 223.575 166.595C224.189 167.281 225.125 168.214 225.637 168.71C226.193 169.205 227.071 169.949 227.568 170.386C228.065 170.765 229.06 171.451 229.747 171.888C230.435 172.384 231.619 173.069 232.424 173.434C233.17 173.813 234.428 174.367 235.174 174.673C235.92 174.994 237.046 175.358 237.66 175.548C238.289 175.738 239.415 175.985 240.103 176.102C240.79 176.233 241.902 176.481 242.589 176.539C243.277 176.612 244.842 176.729 246.026 176.729C247.211 176.729 248.835 176.671 249.522 176.539C250.268 176.481 251.57 176.233 252.389 176.044C253.193 175.854 254.685 175.49 255.694 175.111C256.689 174.804 258.312 174.119 259.307 173.623C260.36 173.128 261.793 172.311 262.481 171.815C263.241 171.378 264.353 170.576 264.982 170.08C265.611 169.584 266.796 168.462 267.6 167.587C268.478 166.727 269.589 165.414 270.16 164.729C270.657 163.985 271.403 162.863 271.783 162.25C272.149 161.682 272.836 160.442 273.217 159.64C273.582 158.824 274.153 157.526 274.401 156.782C274.708 156.097 275.089 154.785 275.264 153.91C275.513 153.05 275.776 151.621 275.893 150.863C276.083 149.813 276.142 148.632 276.142 146.707C276.142 144.782 276.083 143.529 275.893 142.479C275.776 141.604 275.454 140.175 275.206 139.242C274.957 138.309 274.518 136.821 274.153 135.947C273.831 135.086 273.217 133.774 272.836 133.03C272.471 132.287 271.71 131.033 271.154 130.173C270.657 129.356 269.721 128.117 269.165 127.49C268.595 126.804 267.6 125.755 266.913 125.069C266.225 124.442 265.099 123.451 264.426 122.955C263.739 122.401 262.671 121.657 261.984 121.22C261.296 120.841 260.243 120.228 259.556 119.849C258.868 119.543 257.742 119.047 257.054 118.785C256.44 118.479 255.314 118.114 254.568 117.925C253.822 117.735 252.813 117.429 252.316 117.298C251.818 117.239 250.707 117.05 249.829 116.933C248.893 116.802 247.401 116.744 245.953 116.744C244.651 116.744 243.028 116.802 242.34 116.933C241.653 116.991 240.541 117.181 239.971 117.298Z" fill="#0094FF"/>
</g>
<defs>
<clipPath id="clip0_2074_545">
<rect width="227" height="240" fill="white" transform="translate(86 80)"/>
</clipPath>
</defs>
</svg>
