<svg width="400" height="400" viewBox="0 0 400 400" fill="none" xmlns="http://www.w3.org/2000/svg">
<g clip-path="url(#clip0_2074_549)">
<path d="M200 80C239.785 80 272.342 82.521 294.984 105.076C317.673 127.687 320 160.276 320 200.117C320 239.913 317.698 272.473 295.061 295.092C272.429 317.711 239.832 320 200 320C160.169 320 127.566 317.711 104.935 295.092C82.2954 272.477 80 239.913 80 200.117C80 160.327 82.2959 127.773 104.926 105.166C127.559 82.5501 160.165 80 200 80ZM129.073 154.346C128.241 154.346 127.573 155.011 127.573 155.828V244.603C127.573 245.406 128.242 246.074 129.073 246.074H148.534C149.366 246.074 150.052 245.406 150.052 244.603V174.925C150.052 174.12 150.728 173.455 151.555 173.455H186.81C193.74 173.625 200.406 174.446 203.978 178.027C208.127 182.191 208.591 190.461 208.611 198.508V244.602C208.611 245.405 209.292 246.073 210.125 246.073H229.573C230.404 246.073 231.082 245.405 231.082 244.602V199.287C231.051 184.879 230.245 170.042 222.806 162.591C215.239 155.019 199.896 154.346 185.223 154.346H129.073ZM169.146 189.702C168.306 189.702 167.633 190.365 167.633 191.176V244.603C167.633 245.406 168.307 246.074 169.146 246.074H189.576C190.403 246.074 191.077 245.406 191.077 244.603V191.176C191.077 190.365 190.404 189.702 189.576 189.702H169.146ZM250.184 154.346C249.348 154.346 248.67 155.011 248.67 155.828V244.603C248.67 245.406 249.349 246.074 250.184 246.074H269.635C270.459 246.074 271.145 245.406 271.146 244.603V155.828C271.146 155.011 270.459 154.346 269.635 154.346H250.184Z" fill="#FF6900"/>
</g>
<defs>
<clipPath id="clip0_2074_549">
<rect width="240" height="240" fill="white" transform="translate(80 80)"/>
</clipPath>
</defs>
</svg>
