<svg width="400" height="400" viewBox="0 0 400 400" fill="none" xmlns="http://www.w3.org/2000/svg">
<path d="M139.126 224.031C148.959 223.341 158.676 226.848 165.806 233.633C172.591 240.763 176.099 250.423 175.409 260.313C175.466 267.788 175.466 275.608 175.409 282.968C175.351 291.536 174.144 301.253 165.806 309.648C158.676 316.433 149.016 319.941 139.126 319.251H116.414C107.789 319.251 98.0713 318.043 89.7338 309.706C82.8913 302.576 79.4413 292.916 80.0738 283.026V260.313C80.1313 251.746 81.3388 242.028 89.7338 233.633C96.8638 226.848 106.524 223.341 116.414 224.031C116.414 224.031 139.126 224.031 139.126 224.031ZM234.576 223.916C235.496 223.973 236.359 224.318 236.991 225.008C248.204 237.601 259.416 250.136 270.571 262.671C270.744 262.843 270.974 262.843 271.146 262.671L304.726 225.008C305.359 224.318 306.221 223.973 307.141 223.916H318.009C318.756 223.858 319.389 224.376 319.446 225.123C319.504 225.526 319.331 225.928 319.044 226.216L278.736 271.468C278.621 271.641 278.621 271.813 278.736 271.986L318.871 317.008C319.389 317.526 319.446 318.331 318.929 318.848C318.641 319.136 318.296 319.308 317.894 319.251H307.026C306.106 319.193 305.244 318.848 304.611 318.158C293.456 305.681 282.301 293.203 271.146 280.611C270.974 280.438 270.744 280.438 270.571 280.611C259.474 293.146 248.376 305.681 237.164 318.158C236.531 318.848 235.669 319.193 234.749 319.251H223.881C223.134 319.308 222.501 318.791 222.444 318.043C222.386 317.641 222.559 317.238 222.846 316.951L262.981 271.928C263.096 271.756 263.096 271.583 262.981 271.411C249.584 256.346 236.129 241.223 222.674 226.158C222.156 225.641 222.099 224.836 222.616 224.318C222.904 224.031 223.306 223.858 223.709 223.916H234.576ZM140.334 235.933H115.149C108.881 235.531 102.729 237.773 98.1288 242.086C93.7588 246.628 91.5163 252.781 91.9763 259.106V284.291C91.5738 290.558 93.8163 296.711 98.1288 301.311C102.671 305.681 108.824 307.923 115.149 307.463H140.334C146.601 307.866 152.754 305.623 157.354 301.311C161.724 296.768 163.966 290.616 163.506 284.291C163.621 276.011 163.621 267.386 163.506 259.106C163.909 252.838 161.666 246.686 157.354 242.086C152.811 237.716 146.601 235.473 140.334 235.933ZM169.371 81.0856C172.649 80.6256 175.639 82.8681 176.099 86.0881C176.156 86.6056 176.156 87.1806 176.099 87.7556V96.0356C176.041 97.9331 175.179 99.7156 173.684 100.981L92.9538 163.656C92.8388 163.771 92.7238 163.943 92.7238 164.116V164.231C92.7238 164.403 92.8388 164.518 93.0113 164.518H174.489C175.409 164.518 176.156 165.266 176.156 166.186V174.696C176.099 175.616 175.409 176.306 174.489 176.363H87.4913C84.1563 176.708 81.1663 174.351 80.8213 171.016C80.7638 170.613 80.7638 170.153 80.8213 169.751V161.701C80.8788 159.803 81.7413 158.021 83.2363 156.756L164.024 93.9656C164.139 93.8506 164.254 93.6781 164.254 93.5056V93.3331C164.254 93.1606 164.139 93.0456 163.966 93.0456H82.4888C81.5688 93.0456 80.8213 92.2981 80.8213 91.3781V82.7531C80.8788 81.8331 81.5688 81.1431 82.4888 81.0856H169.371ZM282.991 81.0856C292.824 80.3956 302.484 83.9031 309.614 90.6881C316.456 97.8181 319.964 107.478 319.274 117.368C319.331 124.843 319.331 132.663 319.274 140.023C319.216 148.591 318.009 158.308 309.614 166.703C302.484 173.488 292.824 176.996 282.991 176.306H260.279C251.654 176.306 241.994 175.098 233.599 166.761C226.756 159.631 223.249 149.971 223.939 140.081V117.368C223.996 108.801 225.204 99.0831 233.599 90.6881C240.729 83.9031 250.389 80.3956 260.279 81.0856H282.991ZM284.199 92.9881H259.014C252.746 92.5281 246.536 94.7131 241.994 99.0256C237.681 103.568 235.439 109.721 235.841 116.046V141.231C235.439 147.498 237.624 153.651 241.994 158.251C246.536 162.621 252.746 164.863 259.014 164.403H284.199C290.466 164.863 296.676 162.678 301.219 158.308C305.589 153.766 307.774 147.613 307.371 141.288C307.486 133.008 307.486 124.383 307.371 116.103C307.774 109.836 305.589 103.683 301.219 99.0831C296.676 94.7706 290.524 92.5281 284.199 92.9881Z" fill="#4C4C4C"/>
</svg>
